<svg xmlns="http://www.w3.org/2000/svg" width="40" height="40">
  <ellipse cx="20" cy="33.5" rx="11" ry="2.8" fill="#000000" opacity="0.25"/>
  <!-- cape qui ondule -->
  <path d="M13.5 16 Q3.2 20.5 4.6 33.5 Q10.8 31.8 14.5 28 Q14.8 21 13.5 16 z" fill="#e800e8" stroke="#333333" stroke-width="1.2"/>
  <path d="M12.6 18.2 Q6.9 21.8 7.1 30.4" fill="none" stroke="#a800a8" stroke-width="1"/>
  <!-- jambes fléchies + bottes -->
  <rect x="15.6" y="29" width="3.2" height="2.5" rx="1" fill="#6b7280" stroke="#333333" stroke-width="1"/>
  <rect x="21.2" y="29" width="3.2" height="2.5" rx="1" fill="#6b7280" stroke="#333333" stroke-width="1"/>
  <rect x="15" y="30.8" width="4.4" height="2.8" rx="1.1" fill="#4a3524" stroke="#333333" stroke-width="1"/>
  <rect x="20.6" y="30.8" width="4.4" height="2.8" rx="1.1" fill="#4a3524" stroke="#333333" stroke-width="1"/>
  <!-- corps abaissé d'un pixel, épée légèrement levée -->
  <g transform="translate(0,1)">
    <g transform="rotate(15 29 20)">
      <path d="M27.6 6.5 L29.4 1.8 L31.2 6.5 z" fill="#dfe4ea" stroke="#333333" stroke-width="0.9"/>
      <rect x="28" y="6" width="2.8" height="13" fill="#dfe4ea" stroke="#333333" stroke-width="0.9"/>
      <line x1="29.4" y1="6.6" x2="29.4" y2="18.4" stroke="#aab3bf" stroke-width="0.9"/>
      <path d="M25.4 19.3 L29.4 17.5 L33.4 19.3 L29.4 21.1 z" fill="#b08d3e" stroke="#333333" stroke-width="0.9"/>
      <rect x="28.4" y="20.3" width="2" height="3.4" rx="0.8" fill="#66422a" stroke="#333333" stroke-width="0.7"/>
      <circle cx="29.4" cy="25.1" r="1.7" fill="#b08d3e" stroke="#333333" stroke-width="0.8"/>
      <circle cx="29.4" cy="25.1" r="0.6" fill="#8f2b2b"/>
    </g>
    <rect x="12.5" y="17.5" width="15" height="11.5" rx="3.5" fill="#d7dce4" stroke="#333333" stroke-width="1.2"/>
    <path d="M23.5 18 q3.2 0.8 3.2 4.8 v0.9 q0 4 -3.2 4.8 z" fill="#b9c1cc"/>
    <line x1="13.3" y1="18.6" x2="25.6" y2="26.4" stroke="#66422a" stroke-width="2"/>
    <rect x="18.9" y="21.4" width="2.2" height="2.7" rx="0.5" fill="#c9a24b" stroke="#333333" stroke-width="0.7"/>
    <path d="M20 27.4 l1.3 -1.7 l-1.3 -1.7 l-1.3 1.7 z" fill="#8f2b2b" stroke="#333333" stroke-width="0.6"/>
    <circle cx="27" cy="18.8" r="2.9" fill="#d7dce4" stroke="#333333" stroke-width="1"/>
    <circle cx="27" cy="18.8" r="0.5" fill="#8e98a6"/>
    <circle cx="20" cy="10.3" r="6.2" fill="#e8b98c" stroke="#333333" stroke-width="1.2"/>
    <path d="M14 9.4 Q14.2 4.9 20 4.4 Q25.8 4.9 26 9.4 Q23.4 7.1 20 7.1 Q16.6 7.1 14 9.4 z" fill="#5a3d22" stroke="#333333" stroke-width="1"/>
    <ellipse cx="17.7" cy="10.4" rx="0.55" ry="0.75" fill="#2b2b2b"/>
    <ellipse cx="22.3" cy="10.4" rx="0.55" ry="0.75" fill="#2b2b2b"/>
    <path d="M13.9 7.6 h12.2 v1.7 h-12.2 z" fill="#c9a24b" stroke="#333333" stroke-width="0.9"/>
    <circle cx="14.4" cy="8.45" r="0.55" fill="#a5793a"/>
    <circle cx="25.6" cy="8.45" r="0.55" fill="#a5793a"/>
    <path d="M20 6.1 l1.3 1.5 l-1.3 1.5 l-1.3 -1.5 z" fill="#8f2b2b" stroke="#333333" stroke-width="0.7"/>
  </g>
</svg>
