<svg xmlns="http://www.w3.org/2000/svg" width="40" height="40">
  <ellipse cx="20" cy="33.5" rx="11" ry="2.8" fill="#000000" opacity="0.25"/>
  <!-- corps abaissé d'un pixel, la robe se tasse sur l'ourlet -->
  <g transform="translate(0,1)">
    <rect x="7.2" y="21.5" width="6" height="5.6" rx="1.6" fill="#8a5a33" stroke="#333333" stroke-width="1"/>
    <path d="M7.2 23.4 h6" stroke="#66422a" stroke-width="1.1" fill="none"/>
    <circle cx="10.2" cy="24.6" r="0.8" fill="#c9a24b" stroke="#333333" stroke-width="0.6"/>
    <path d="M13.2 17.5 h13.6 l1.6 13 h-16.8 z" fill="#efe8d8" stroke="#333333" stroke-width="1.2"/>
    <path d="M12.1 28.4 l17.9 0 l0.3 2.1 h-18.5 z" fill="#d8cfba"/>
    <rect x="16.2" y="17.5" width="2.4" height="12.6" fill="#e800e8" stroke="#333333" stroke-width="0.9"/>
    <rect x="21.4" y="17.5" width="2.4" height="12.6" fill="#e800e8" stroke="#333333" stroke-width="0.9"/>
    <path d="M16.2 27.7 h2.4 v2.4 h-2.4 z M21.4 27.7 h2.4 v2.4 h-2.4 z" fill="#a800a8"/>
    <rect x="13.4" y="23.8" width="13.2" height="1.9" fill="#c9a24b" stroke="#333333" stroke-width="0.7"/>
    <path d="M25.8 18.6 L9.6 24.4" stroke="#66422a" stroke-width="1.8" fill="none"/>
    <path d="M24.6 20 L28.4 15.4 L26.6 13.9 L23.2 18.5 z" fill="#efe8d8" stroke="#333333" stroke-width="0.9"/>
    <circle cx="28" cy="14.6" r="1.8" fill="#e8b98c" stroke="#333333" stroke-width="0.9"/>
    <g transform="rotate(12 30.5 11)">
      <path d="M29 9.2 h3 v2.2 q2 1 2 3 a3.5 3.5 0 0 1 -7 0 q0 -2 2 -3 z" fill="#dfe4ea" stroke="#333333" stroke-width="1" opacity="0.92"/>
      <path d="M28.2 13.6 a2.6 2.6 0 0 0 4.6 1.6 q0.6 -1.6 -0.6 -2.6 z" fill="#6fc26b"/>
      <rect x="28.6" y="7.6" width="3.8" height="1.9" rx="0.8" fill="#8a5a33" stroke="#333333" stroke-width="0.8"/>
    </g>
    <circle cx="19.5" cy="10.3" r="6.2" fill="#e8b98c" stroke="#333333" stroke-width="1.2"/>
    <ellipse cx="17.3" cy="10.6" rx="0.55" ry="0.75" fill="#2b2b2b"/>
    <ellipse cx="21.7" cy="10.6" rx="0.55" ry="0.75" fill="#2b2b2b"/>
    <path d="M15.2 7.6 Q17 5.4 19.8 5.6 Q18.2 6.6 17.8 8.4 Q16.4 7.6 15.2 7.6 z" fill="#8a5f33" stroke="#333333" stroke-width="0.8"/>
    <path d="M13.3 9.4 Q13.3 3.8 19.5 3.6 Q25.7 3.8 25.7 9.4 L25.7 12.8 Q24.6 8.4 19.5 8.2 Q14.4 8.4 13.3 12.8 z" fill="#f6f2e6" stroke="#333333" stroke-width="1.1"/>
    <path d="M24.2 4.9 q1.5 1.8 1.5 4.5 v3.4 l-1.1 -2.6 z" fill="#dcd4c0"/>
  </g>
</svg>
